<svg id="Layer_1" data-name="Layer 1" xmlns="http://www.w3.org/2000/svg" viewBox="0 0 29 29"><defs><style>.cls-1{fill:#0071ba;}</style></defs><title>icon_ordering30x30</title><g id="_16" data-name="16"><path class="cls-1" d="M29,4.1H23.43a.4.4,0,0,0-.14-.26L20,.65A.51.51,0,0,0,19.65.5H6.9a.5.5,0,0,0-.51.5V4.1H1a.5.5,0,0,0-.51.5V23.86a.5.5,0,0,0,.51.49h9.41c-.1,1.61-.67,2.07-.82,2.16H6.34a1.73,1.73,0,0,0-1.75,1.7V29a.51.51,0,0,0,.52.5H24.89a.51.51,0,0,0,.52-.5v-.79a1.73,1.73,0,0,0-1.75-1.7H20.4c-.16-.1-.72-.57-.82-2.16H29a.5.5,0,0,0,.51-.49V4.6A.5.5,0,0,0,29,4.1Zm-.51,15.27h-1.2V6.76a.5.5,0,0,0-.51-.5H23.44V5.1h5Zm-5,0V7.25h2.82V19.37ZM22.12,4.1H19.69V1.74ZM18.67,1.5V4.6a.51.51,0,0,0,.51.5h3.24V19.37h-15V1.5ZM6.39,19.37H3.74V7.25H6.39Zm0-14.27V6.26H3.23a.5.5,0,0,0-.51.5V19.37H1.52V5.1Zm18,23.11v.29H5.62v-.29a.71.71,0,0,1,.72-.7H23.66A.71.71,0,0,1,24.38,28.21Zm-5.29-1.7H10.91a5,5,0,0,0,.54-2.16h7.1A5,5,0,0,0,19.09,26.51ZM1.52,23.36v-3h27v3Z" transform="translate(-0.5 -0.5)"/><path class="cls-1" d="M26.6,21.2a.67.67,0,1,0,.68.66A.67.67,0,0,0,26.6,21.2Z" transform="translate(-0.5 -0.5)"/><path class="cls-1" d="M10.14,9.91h9.55a.5.5,0,0,0,.51-.5.51.51,0,0,0-.51-.5H10.14a.51.51,0,0,0-.51.5A.5.5,0,0,0,10.14,9.91Z" transform="translate(-0.5 -0.5)"/><path class="cls-1" d="M10.14,12.23h9.55a.5.5,0,1,0,0-1H10.14a.5.5,0,1,0,0,1Z" transform="translate(-0.5 -0.5)"/><path class="cls-1" d="M10.14,14.56h5.74a.5.5,0,1,0,0-1H10.14a.5.5,0,1,0,0,1Z" transform="translate(-0.5 -0.5)"/><path class="cls-1" d="M10.14,16.88h5.74a.5.5,0,1,0,0-1H10.14a.5.5,0,1,0,0,1Z" transform="translate(-0.5 -0.5)"/><path class="cls-1" d="M10.14,7.59h9.55a.51.51,0,0,0,.51-.5.5.5,0,0,0-.51-.5H10.14a.5.5,0,0,0-.51.5A.51.51,0,0,0,10.14,7.59Z" transform="translate(-0.5 -0.5)"/><path class="cls-1" d="M10.14,5.26H17a.5.5,0,1,0,0-1H10.14a.5.5,0,1,0,0,1Z" transform="translate(-0.5 -0.5)"/><path class="cls-1" d="M21.11,15.78h.14a.51.51,0,0,0,.52-.5.51.51,0,0,0-.52-.5h-.14a.5.5,0,0,0-.51.5A.51.51,0,0,0,21.11,15.78Z" transform="translate(-0.5 -0.5)"/><path class="cls-1" d="M18.7,13a.51.51,0,0,0-.48.34l-.84,2.56a.5.5,0,0,0,0,.13l-.18.55a.49.49,0,0,0,.33.63.51.51,0,0,0,.64-.32l.09-.28h1.12l.16.4a.5.5,0,0,0,.48.33l.17,0a.5.5,0,0,0,.31-.64l-1.27-3.35A.48.48,0,0,0,18.7,13Zm-.15,2.61.19-.58.23.58Z" transform="translate(-0.5 -0.5)"/></g></svg>